<svg width="139" height="52" viewBox="0 0 139 52" fill="none" xmlns="http://www.w3.org/2000/svg">
<path fill-rule="evenodd" clip-rule="evenodd" d="M30.4523 4.23657C27.0957 0.879887 21.6534 0.87988 18.2967 4.23657L2.51752 20.0158C-0.839168 23.3724 -0.839175 28.8147 2.51751 32.1714L18.2967 47.9506C21.6534 51.3073 27.0957 51.3073 30.4523 47.9506L46.2315 32.1714C49.5882 28.8147 49.5882 23.3725 46.2315 20.0158L30.4523 4.23657ZM24.3745 37.6973C30.7831 37.6973 35.9782 32.5021 35.9782 26.0936C35.9782 19.685 30.7831 14.4899 24.3745 14.4899C17.966 14.4899 12.7708 19.685 12.7708 26.0936C12.7708 32.5021 17.966 37.6973 24.3745 37.6973Z" fill="white"/>
<circle cx="24.4968" cy="26.2158" r="7.7358" stroke="white" stroke-opacity="0.5" stroke-width="2.5786"/>
<circle cx="24.4968" cy="26.2157" r="3.8679" fill="white" fill-opacity="0.8"/>
<path d="M58.6482 22H68.7868V19.3848H61.8202V15.8026H68.2374V13.1873H61.8202V9.61247H68.7575V6.99724H58.6482V22ZM75.2009 6.99724H72.0802V22H75.2009V6.99724ZM83.6882 22.2198C86.4719 22.2198 88.3473 20.8645 88.7868 18.7768L85.9005 18.5863C85.5855 19.4434 84.7797 19.8902 83.7395 19.8902C82.1791 19.8902 81.1902 18.8573 81.1902 17.1798V17.1725H88.8527V16.3154C88.8527 12.4914 86.5378 10.6014 83.5637 10.6014C80.2525 10.6014 78.1061 12.9529 78.1061 16.4252C78.1061 19.9928 80.2232 22.2198 83.6882 22.2198ZM81.1902 15.2385C81.2561 13.9565 82.2304 12.9309 83.6149 12.9309C84.9702 12.9309 85.9078 13.8979 85.9152 15.2385H81.1902ZM96.8181 26.4539C100.034 26.4539 102.32 24.9888 102.32 22.1099V10.7479H99.2208V12.6379H99.1036C98.6861 11.7222 97.7704 10.6014 95.8877 10.6014C93.419 10.6014 91.3312 12.5207 91.3312 16.352C91.3312 20.0954 93.3604 21.8388 95.895 21.8388C97.6898 21.8388 98.6934 20.9378 99.1036 20.0074H99.2355V22.0659C99.2355 23.6116 98.2465 24.2123 96.8913 24.2123C95.5141 24.2123 94.8182 23.6116 94.5618 22.9303L91.6755 23.3186C92.0491 25.0914 93.7853 26.4539 96.8181 26.4539ZM96.884 19.4947C95.3529 19.4947 94.5178 18.2786 94.5178 16.3373C94.5178 14.4254 95.3383 13.0848 96.884 13.0848C98.4004 13.0848 99.2501 14.3668 99.2501 16.3373C99.2501 18.3226 98.3857 19.4947 96.884 19.4947ZM108.871 22.2124C110.534 22.2124 111.611 21.4872 112.16 20.4397H112.248V22H115.208V14.4107C115.208 11.7296 112.937 10.6014 110.431 10.6014C107.736 10.6014 105.963 11.8907 105.531 13.9419L108.417 14.1763C108.629 13.4291 109.296 12.8797 110.417 12.8797C111.479 12.8797 112.087 13.4144 112.087 14.3375V14.3814C112.087 15.1066 111.318 15.2019 109.362 15.3923C107.135 15.5975 105.135 16.3447 105.135 18.8573C105.135 21.0843 106.725 22.2124 108.871 22.2124ZM109.765 20.0587C108.805 20.0587 108.117 19.6119 108.117 18.7548C108.117 17.8757 108.842 17.4435 109.941 17.2897C110.622 17.1944 111.735 17.0333 112.109 16.7842V17.9783C112.109 19.1577 111.135 20.0587 109.765 20.0587ZM121.609 15.4949C121.616 14.0444 122.481 13.1947 123.741 13.1947C124.993 13.1947 125.748 14.0151 125.741 15.3923V22H128.861V14.8356C128.861 12.213 127.323 10.6014 124.979 10.6014C123.309 10.6014 122.1 11.4219 121.594 12.7332H121.462V10.7479H118.488V22H121.609V15.4949ZM138.165 10.7479H136.048V8.05212H132.928V10.7479H131.389V13.0921H132.928V18.9526C132.913 21.1576 134.415 22.2491 136.678 22.1538C137.484 22.1245 138.056 21.9634 138.371 21.8608L137.88 19.5386C137.726 19.5679 137.396 19.6412 137.103 19.6412C136.481 19.6412 136.048 19.4067 136.048 18.5423V13.0921H138.165V10.7479Z" fill="white"/>
<path d="M61.1389 41.3478C63.8054 41.3478 65.348 39.6941 65.348 36.9592C65.348 34.2372 63.8054 32.5962 61.2286 32.5962H58.3057V41.3478H61.1389ZM59.6262 40.1941V33.75H61.1474C63.0618 33.75 64.049 34.8952 64.049 36.9592C64.049 39.0317 63.0618 40.1941 61.0662 40.1941H59.6262ZM69.6571 41.4931C70.7425 41.4931 71.3536 40.9419 71.5972 40.4505H71.6485V41.3478H72.8963V36.9891C72.8963 35.079 71.3921 34.6987 70.3494 34.6987C69.1614 34.6987 68.0675 35.1773 67.6402 36.3738L68.841 36.6473C69.029 36.1815 69.5076 35.7328 70.3665 35.7328C71.1912 35.7328 71.6143 36.1644 71.6143 36.9079V36.9378C71.6143 37.4036 71.1357 37.3951 69.9563 37.5318C68.7128 37.6771 67.4393 38.0019 67.4393 39.4933C67.4393 40.7838 68.4094 41.4931 69.6571 41.4931ZM69.9349 40.4676C69.2127 40.4676 68.6914 40.1428 68.6914 39.5103C68.6914 38.8266 69.2982 38.583 70.0375 38.4848C70.452 38.4292 71.4348 38.3181 71.6186 38.1344V38.9805C71.6186 39.7582 70.9989 40.4676 69.9349 40.4676ZM80.3761 36.3866C80.1112 35.3653 79.3121 34.6987 77.8934 34.6987C76.4106 34.6987 75.3593 35.4807 75.3593 36.643C75.3593 37.5746 75.9234 38.1942 77.1541 38.4677L78.2651 38.7112C78.8976 38.8523 79.1924 39.1343 79.1924 39.5445C79.1924 40.053 78.6497 40.4505 77.8122 40.4505C77.0473 40.4505 76.5558 40.1214 76.402 39.4762L75.167 39.6642C75.3807 40.8265 76.3465 41.4803 77.8207 41.4803C79.4061 41.4803 80.5043 40.6385 80.5043 39.4505C80.5043 38.5232 79.9146 37.9506 78.7096 37.6728L77.6669 37.4335C76.9447 37.2626 76.6328 37.019 76.637 36.5746C76.6328 36.0704 77.1797 35.7114 77.9062 35.7114C78.701 35.7114 79.0685 36.1516 79.2181 36.5917L80.3761 36.3866ZM84.0464 37.4506C84.0464 36.4037 84.7087 35.8054 85.6189 35.8054C86.4992 35.8054 87.0248 36.3652 87.0248 37.3267V41.3478H88.3025V37.1729C88.3025 35.5362 87.4052 34.6987 86.0548 34.6987C85.0335 34.6987 84.4182 35.1431 84.1105 35.8524H84.0293V32.5962H82.7687V41.3478H84.0464V37.4506ZM90.9697 41.3478H92.2174V40.3265H92.3243C92.555 40.7453 93.0251 41.476 94.2216 41.476C95.8112 41.476 96.965 40.2026 96.965 38.0788C96.965 35.9507 95.7942 34.6987 94.2088 34.6987C92.9909 34.6987 92.5508 35.4422 92.3243 35.8482H92.2474V32.5962H90.9697V41.3478ZM92.2217 38.066C92.2217 36.6943 92.82 35.7841 93.9353 35.7841C95.0933 35.7841 95.6745 36.7626 95.6745 38.066C95.6745 39.3821 95.0762 40.3864 93.9353 40.3864C92.8371 40.3864 92.2217 39.4462 92.2217 38.066ZM102.024 41.4803C103.874 41.4803 105.084 40.1257 105.084 38.0959C105.084 36.0533 103.874 34.6987 102.024 34.6987C100.174 34.6987 98.9644 36.0533 98.9644 38.0959C98.9644 40.1257 100.174 41.4803 102.024 41.4803ZM102.028 40.4077C100.819 40.4077 100.255 39.3522 100.255 38.0916C100.255 36.8353 100.819 35.767 102.028 35.767C103.229 35.767 103.793 36.8353 103.793 38.0916C103.793 39.3522 103.229 40.4077 102.028 40.4077ZM109.28 41.4931C110.365 41.4931 110.976 40.9419 111.22 40.4505H111.271V41.3478H112.519V36.9891C112.519 35.079 111.015 34.6987 109.972 34.6987C108.784 34.6987 107.69 35.1773 107.263 36.3738L108.463 36.6473C108.651 36.1815 109.13 35.7328 109.989 35.7328C110.814 35.7328 111.237 36.1644 111.237 36.9079V36.9378C111.237 37.4036 110.758 37.3951 109.579 37.5318C108.335 37.6771 107.062 38.0019 107.062 39.4933C107.062 40.7838 108.032 41.4931 109.28 41.4931ZM109.557 40.4676C108.835 40.4676 108.314 40.1428 108.314 39.5103C108.314 38.8266 108.921 38.583 109.66 38.4848C110.074 38.4292 111.057 38.3181 111.241 38.1344V38.9805C111.241 39.7582 110.621 40.4676 109.557 40.4676ZM115.08 41.3478H116.358V37.3395C116.358 36.4806 117.02 35.861 117.926 35.861C118.191 35.861 118.49 35.908 118.593 35.9379V34.7158C118.464 34.6987 118.212 34.6858 118.05 34.6858C117.281 34.6858 116.623 35.1217 116.383 35.8268H116.315V34.7841H115.08V41.3478ZM122.78 41.476C123.977 41.476 124.447 40.7453 124.677 40.3265H124.784V41.3478H126.032V32.5962H124.754V35.8482H124.677C124.447 35.4422 124.011 34.6987 122.789 34.6987C121.203 34.6987 120.037 35.9507 120.037 38.0788C120.037 40.2026 121.186 41.476 122.78 41.476ZM123.062 40.3864C121.921 40.3864 121.327 39.3821 121.327 38.066C121.327 36.7626 121.908 35.7841 123.062 35.7841C124.177 35.7841 124.776 36.6943 124.776 38.066C124.776 39.4462 124.165 40.3864 123.062 40.3864Z" fill="white"/>
</svg>
